<svg xmlns="http://www.w3.org/2000/svg" xmlns:xlink="http://www.w3.org/1999/xlink" width="66" height="73" viewBox="0 0 66 73">
  <defs>
    <clipPath id="clip-path">
      <rect id="Rectangle_11" data-name="Rectangle 11" width="66" height="73" transform="translate(0 0)" fill="none"/>
    </clipPath>
  </defs>
  <g id="Group_16" data-name="Group 16" transform="translate(0 0)" clip-path="url(#clip-path)">
    <path id="Path_1" data-name="Path 1" d="M50.176,70.771a2.037,2.037,0,0,1-3.146,1.9c-2.456-1.245-4.884-2.544-7.323-3.822-1.957-1.025-3.926-2.03-5.86-3.1a1.566,1.566,0,0,0-1.692.01c-4.2,2.238-8.424,4.43-12.629,6.657-.939.5-1.857.924-2.852.2s-.881-1.709-.694-2.768q1.262-7.119,2.427-14.255a1.738,1.738,0,0,0-.463-1.3c-3.46-3.42-6.969-6.788-10.435-10.2A3.723,3.723,0,0,1,6.5,42.5c-.3-1.133.6-2.133,1.97-2.335,4.913-.728,9.825-1.457,14.742-2.147a1.469,1.469,0,0,0,1.27-.946c2.124-4.365,4.263-8.725,6.473-13.046a3.521,3.521,0,0,1,1.615-1.528c.939-.4,1.85.2,2.421,1.347,1.663,3.343,3.31,6.695,4.965,10.043a24.076,24.076,0,0,1,1.333,2.745,2.18,2.18,0,0,0,2.121,1.5c4.685.637,9.359,1.346,14.041,2a2.18,2.18,0,0,1,2,1.477,2.157,2.157,0,0,1-.812,2.35c-3.488,3.391-6.964,6.794-10.471,10.166a1.636,1.636,0,0,0-.563,1.681c.875,4.81,1.688,9.63,2.518,14.447.035.2.041.405.051.519M45.4,67.217c-.048-.368-.063-.53-.09-.691-.645-3.815-1.255-7.636-1.964-11.439a2.817,2.817,0,0,1,.9-2.825c2.7-2.584,5.371-5.21,8.049-7.821.23-.225.445-.467.732-.77-.395-.089-.657-.166-.923-.2-3.735-.546-7.466-1.123-11.209-1.607a2.907,2.907,0,0,1-2.462-1.822c-1.587-3.3-3.237-6.577-4.865-9.862-.158-.318-.346-.622-.583-1.042-.24.451-.419.769-.581,1.1q-2.48,5.02-4.952,10.046a2.424,2.424,0,0,1-1.895,1.518q-3.587.511-7.169,1.035-2.652.387-5.3.786l-.191.317a5.372,5.372,0,0,1,.846.56c2.716,2.623,5.41,5.267,8.13,7.885a2.469,2.469,0,0,1,.86,2.364c-.385,2.1-.749,4.21-1.109,6.317-.34,1.989-.664,3.979-1.022,6.133.48-.231.784-.366,1.077-.52,3.13-1.641,6.29-3.228,9.374-4.955a3.569,3.569,0,0,1,3.889-.019c3.377,1.882,6.835,3.619,10.46,5.52"/>
    <path id="Path_2" data-name="Path 2" d="M35.045,9c0,2.138.008,4.277,0,6.415-.007,1.492-.786,2.441-2,2.476-1.236.035-2.083-.953-2.086-2.488q-.012-6.465,0-12.932c0-1.5.779-2.438,1.994-2.469,1.253-.03,2.079.936,2.086,2.481.011,2.172,0,4.345,0,6.517"/>
    <path id="Path_3" data-name="Path 3" d="M52.733,30.352a2.078,2.078,0,0,1-2.115-2.915,3.37,3.37,0,0,1,.61-.808q3.092-3.109,6.206-6.194a3.482,3.482,0,0,1,.807-.614,2,2,0,0,1,2.688,2.707,3.091,3.091,0,0,1-.552.726c-2.086,2.1-4.164,4.2-6.288,6.256a6.3,6.3,0,0,1-1.356.843"/>
    <path id="Path_4" data-name="Path 4" d="M15.341,27.787a2.063,2.063,0,0,1-2.977,2.022,3.274,3.274,0,0,1-.726-.551q-3-2.974-5.979-5.966a3.672,3.672,0,0,1-.505-.634,1.994,1.994,0,0,1,2.729-2.77,2.1,2.1,0,0,1,.414.293c2.141,2.127,4.3,4.243,6.4,6.405a4.243,4.243,0,0,1,.641,1.2"/>
    <path id="Path_5" data-name="Path 5" d="M4.02,16.782a1.99,1.99,0,0,1-2.013,1.994A2.022,2.022,0,0,1,0,16.763a2.083,2.083,0,0,1,2.026-2.017A2.051,2.051,0,0,1,4.02,16.782"/>
    <path id="Path_6" data-name="Path 6" d="M61.982,16.784a2.053,2.053,0,0,1,1.991-2.039A2.084,2.084,0,0,1,66,16.762a2.019,2.019,0,0,1-2,2.014,1.99,1.99,0,0,1-2.014-1.992"/>
    <path id="Path_7" data-name="Path 7" d="M45.4,67.217c-3.624-1.9-7.083-3.638-10.46-5.52a3.569,3.569,0,0,0-3.889.019c-3.083,1.726-6.244,3.314-9.374,4.955-.293.154-.6.289-1.077.52.358-2.154.682-4.144,1.022-6.133.36-2.107.725-4.214,1.109-6.317a2.469,2.469,0,0,0-.86-2.364c-2.72-2.619-5.414-5.263-8.13-7.885a5.372,5.372,0,0,0-.846-.56l.191-.317q2.65-.394,5.3-.786,3.584-.523,7.169-1.035a2.424,2.424,0,0,0,1.895-1.518q2.46-5.031,4.952-10.046c.161-.326.341-.644.581-1.1.236.42.424.724.583,1.042,1.629,3.284,3.278,6.558,4.865,9.862a2.907,2.907,0,0,0,2.462,1.822c3.743.483,7.474,1.061,11.209,1.607.266.038.528.115.923.2-.287.3-.5.545-.732.77-2.678,2.612-5.344,5.237-8.049,7.821a2.817,2.817,0,0,0-.9,2.825c.708,3.8,1.318,7.624,1.964,11.439.027.161.043.323.09.691" fill="#fff"/>
  </g>
</svg>
